<svg xmlns="http://www.w3.org/2000/svg" xmlns:xlink="http://www.w3.org/1999/xlink" width="400" zoomAndPan="magnify" viewBox="0 0 300 299.999988" height="400" preserveAspectRatio="xMidYMid meet" version="1.0"><defs><clipPath id="cc07665b5b"><path d="M 34.109375 113.785156 L 265.859375 113.785156 L 265.859375 185 L 34.109375 185 Z M 34.109375 113.785156 " clip-rule="nonzero"/></clipPath><clipPath id="c3ac3f9c9e"><path d="M 81 130 L 136 130 L 136 186.535156 L 81 186.535156 Z M 81 130 " clip-rule="nonzero"/></clipPath></defs><rect x="-30" width="360" fill="#ffffff" y="-29.999999" height="359.999986" fill-opacity="1"/><rect x="-30" width="360" fill="#ffffff" y="-29.999999" height="359.999986" fill-opacity="1"/><g clip-path="url(#cc07665b5b)"><path fill="#042698" d="M 56.65625 184.597656 C 56.597656 184.597656 56.539062 184.613281 56.476562 184.613281 C 56.035156 184.613281 55.605469 184.550781 55.1875 184.421875 C 54.769531 184.289062 54.378906 184.097656 54.015625 183.847656 C 53.65625 183.597656 53.339844 183.300781 53.066406 182.957031 C 52.796875 182.609375 52.585938 182.230469 52.429688 181.820312 L 34.40625 134.519531 C 34.304688 134.253906 34.226562 133.980469 34.179688 133.699219 C 34.132812 133.417969 34.113281 133.136719 34.121094 132.851562 C 34.128906 132.5625 34.164062 132.28125 34.230469 132.003906 C 34.292969 131.726562 34.382812 131.460938 34.5 131.199219 C 34.613281 130.941406 34.753906 130.695312 34.921875 130.464844 C 35.085938 130.230469 35.269531 130.019531 35.476562 129.824219 C 35.683594 129.628906 35.910156 129.457031 36.148438 129.304688 C 36.390625 129.152344 36.644531 129.027344 36.910156 128.925781 C 37.175781 128.824219 37.449219 128.75 37.730469 128.703125 C 38.011719 128.65625 38.292969 128.636719 38.578125 128.648438 C 38.863281 128.65625 39.144531 128.691406 39.417969 128.753906 C 39.695312 128.816406 39.964844 128.90625 40.226562 129.027344 C 40.484375 129.140625 40.730469 129.28125 40.960938 129.445312 C 41.195312 129.613281 41.40625 129.800781 41.601562 130.007812 C 41.796875 130.210938 41.972656 130.433594 42.121094 130.675781 C 42.273438 130.917969 42.402344 131.171875 42.503906 131.4375 L 56.679688 168.636719 L 64.316406 148.777344 C 64.328125 148.71875 64.335938 148.652344 64.351562 148.585938 C 69.347656 132.875 79.816406 121.175781 93.082031 116.488281 C 97.769531 114.832031 102.597656 113.933594 107.566406 113.796875 C 107.851562 113.777344 108.132812 113.785156 108.417969 113.820312 C 108.699219 113.851562 108.976562 113.914062 109.246094 114.003906 C 109.515625 114.09375 109.777344 114.207031 110.023438 114.347656 C 110.273438 114.488281 110.503906 114.652344 110.71875 114.839844 C 110.933594 115.023438 111.128906 115.230469 111.304688 115.453125 C 111.480469 115.675781 111.632812 115.917969 111.761719 116.171875 C 111.890625 116.425781 111.992188 116.691406 112.070312 116.964844 C 112.144531 117.238281 112.195312 117.515625 112.214844 117.800781 C 112.238281 118.085938 112.230469 118.367188 112.195312 118.648438 C 112.164062 118.929688 112.101562 119.207031 112.011719 119.476562 C 111.921875 119.746094 111.808594 120.007812 111.667969 120.253906 C 111.527344 120.503906 111.367188 120.734375 111.179688 120.949219 C 110.996094 121.164062 110.789062 121.359375 110.566406 121.535156 C 110.34375 121.710938 110.105469 121.859375 109.851562 121.988281 C 109.597656 122.117188 109.332031 122.21875 109.058594 122.296875 C 108.785156 122.371094 108.503906 122.421875 108.222656 122.441406 C 104.320312 122.53125 100.515625 123.171875 96.800781 124.367188 C 96.84375 124.703125 96.835938 125.039062 96.773438 125.371094 C 96.710938 125.703125 96.597656 126.019531 96.433594 126.320312 C 96.273438 126.617188 96.066406 126.882812 95.820312 127.117188 C 95.574219 127.355469 95.296875 127.542969 94.988281 127.691406 L 94.066406 128.125 C 93.753906 128.273438 93.425781 128.367188 93.078125 128.410156 C 92.734375 128.449219 92.394531 128.4375 92.054688 128.363281 C 91.714844 128.296875 91.394531 128.175781 91.09375 128 C 90.792969 127.828125 90.527344 127.613281 90.296875 127.351562 C 87.839844 128.832031 85.597656 130.59375 83.574219 132.628906 C 83.761719 132.914062 83.902344 133.226562 83.988281 133.558594 C 84.078125 133.890625 84.113281 134.226562 84.09375 134.574219 C 84.074219 134.914062 84.003906 135.246094 83.878906 135.566406 C 83.753906 135.886719 83.582031 136.179688 83.359375 136.445312 L 82.707031 137.234375 C 82.484375 137.496094 82.226562 137.71875 81.933594 137.898438 C 81.640625 138.082031 81.328125 138.214844 80.992188 138.292969 C 80.660156 138.375 80.320312 138.402344 79.976562 138.378906 C 79.632812 138.351562 79.304688 138.269531 78.984375 138.140625 C 77.445312 140.359375 76.109375 142.695312 74.976562 145.152344 C 74.964844 145.207031 74.953125 145.257812 74.933594 145.308594 L 74.84375 145.550781 C 75.113281 145.765625 75.34375 146.011719 75.53125 146.296875 C 75.71875 146.582031 75.859375 146.890625 75.953125 147.21875 C 76.042969 147.550781 76.078125 147.886719 76.0625 148.230469 C 76.046875 148.570312 75.976562 148.902344 75.855469 149.222656 L 75.492188 150.171875 C 75.367188 150.488281 75.199219 150.78125 74.980469 151.042969 C 74.761719 151.308594 74.511719 151.53125 74.222656 151.71875 C 73.933594 151.902344 73.621094 152.035156 73.289062 152.121094 C 72.957031 152.207031 72.621094 152.242188 72.277344 152.222656 L 60.886719 181.84375 C 60.730469 182.257812 60.515625 182.632812 60.242188 182.976562 C 59.972656 183.320312 59.65625 183.617188 59.292969 183.863281 C 58.933594 184.109375 58.542969 184.300781 58.125 184.429688 C 57.707031 184.558594 57.277344 184.625 56.839844 184.621094 C 56.78125 184.613281 56.714844 184.597656 56.65625 184.597656 Z M 90.304688 127.339844 L 90.328125 127.332031 Z M 212.605469 182.234375 C 209.777344 180.828125 207.523438 178.789062 205.84375 176.117188 C 204.175781 173.414062 203.367188 170.472656 203.410156 167.296875 C 203.378906 166.136719 203.488281 164.992188 203.742188 163.863281 C 203.996094 162.734375 204.382812 161.652344 204.910156 160.621094 C 205.433594 159.589844 206.078125 158.640625 206.839844 157.769531 C 207.601562 156.902344 208.460938 156.140625 209.414062 155.484375 C 211.644531 154.035156 214.042969 152.96875 216.609375 152.277344 C 219.175781 151.582031 221.789062 151.300781 224.441406 151.429688 L 239.675781 151.429688 L 239.675781 149.019531 C 239.753906 147.507812 239.53125 146.039062 239 144.621094 C 238.464844 143.199219 237.671875 141.949219 236.617188 140.863281 C 234.613281 138.96875 231.449219 138.003906 227.21875 138.003906 C 224.597656 137.992188 222.074219 138.492188 219.652344 139.492188 C 216.898438 140.679688 214.335938 142.1875 211.960938 144.019531 L 209.925781 145.546875 C 209.910156 145.546875 209.90625 145.546875 209.898438 145.558594 L 209.792969 145.632812 L 209.792969 145.609375 C 209.316406 145.90625 208.800781 146.097656 208.25 146.191406 C 207.699219 146.285156 207.148438 146.273438 206.597656 146.160156 C 206.050781 146.039062 205.546875 145.824219 205.082031 145.507812 C 204.617188 145.195312 204.226562 144.808594 203.914062 144.34375 C 203.761719 144.101562 203.636719 143.847656 203.535156 143.582031 C 203.429688 143.3125 203.355469 143.039062 203.308594 142.757812 C 203.257812 142.476562 203.238281 142.191406 203.246094 141.90625 C 203.253906 141.621094 203.285156 141.339844 203.347656 141.058594 C 203.410156 140.78125 203.496094 140.507812 203.613281 140.246094 C 203.726562 139.984375 203.867188 139.734375 204.027344 139.5 C 204.191406 139.265625 204.375 139.046875 204.582031 138.847656 C 204.785156 138.648438 205.007812 138.472656 205.25 138.3125 L 207.105469 136.964844 C 210.179688 134.679688 213.488281 132.808594 217.03125 131.351562 C 220.5 130.023438 224.085938 129.378906 227.800781 129.414062 C 234.230469 129.414062 239.332031 131.152344 242.949219 134.585938 C 243.875 135.507812 244.699219 136.515625 245.417969 137.605469 C 246.136719 138.695312 246.738281 139.847656 247.21875 141.058594 C 247.703125 142.277344 248.054688 143.527344 248.277344 144.816406 C 248.503906 146.101562 248.59375 147.394531 248.550781 148.699219 L 248.667969 162.480469 C 248.679688 162.933594 248.992188 175.574219 235.070312 181.757812 C 231.015625 183.546875 226.777344 184.4375 222.34375 184.417969 C 218.921875 184.480469 215.675781 183.75 212.605469 182.234375 Z M 214.925781 162.011719 C 214.484375 162.28125 214.085938 162.601562 213.730469 162.980469 C 213.375 163.355469 213.078125 163.769531 212.835938 164.226562 C 212.59375 164.6875 212.417969 165.171875 212.308594 165.675781 C 212.203125 166.183594 212.164062 166.691406 212.191406 167.207031 C 212.140625 168.390625 212.355469 169.519531 212.832031 170.601562 C 213.308594 171.683594 214.003906 172.605469 214.910156 173.363281 C 216.050781 174.246094 217.308594 174.902344 218.6875 175.328125 C 220.066406 175.753906 221.476562 175.921875 222.917969 175.832031 C 224.816406 175.894531 226.6875 175.691406 228.527344 175.21875 C 230.367188 174.746094 232.105469 174.027344 233.742188 173.0625 C 234.539062 172.550781 235.277344 171.964844 235.953125 171.308594 C 237.222656 169.976562 238.1875 168.453125 238.851562 166.738281 C 239.511719 165.019531 239.816406 163.246094 239.769531 161.410156 L 239.769531 159.921875 L 224.828125 159.921875 C 221.332031 159.691406 218.03125 160.390625 214.925781 162.011719 Z M 176.160156 180.019531 C 174.914062 178.285156 173.996094 176.394531 173.402344 174.347656 C 172.8125 172.292969 172.585938 170.203125 172.71875 168.074219 L 172.71875 122.8125 C 172.71875 122.523438 172.746094 122.238281 172.804688 121.953125 C 172.859375 121.671875 172.945312 121.398438 173.054688 121.132812 C 173.164062 120.863281 173.300781 120.613281 173.460938 120.375 C 173.621094 120.136719 173.800781 119.914062 174.007812 119.707031 C 174.210938 119.503906 174.433594 119.320312 174.671875 119.164062 C 174.910156 119 175.164062 118.863281 175.429688 118.753906 C 175.699219 118.644531 175.972656 118.558594 176.253906 118.503906 C 176.539062 118.449219 176.824219 118.421875 177.113281 118.421875 C 177.398438 118.421875 177.6875 118.449219 177.96875 118.503906 C 178.25 118.5625 178.527344 118.644531 178.792969 118.753906 C 179.058594 118.867188 179.3125 119.003906 179.550781 119.164062 C 179.792969 119.320312 180.011719 119.503906 180.21875 119.707031 C 180.421875 119.914062 180.605469 120.136719 180.765625 120.371094 C 180.925781 120.613281 181.058594 120.863281 181.167969 121.132812 C 181.28125 121.398438 181.363281 121.675781 181.417969 121.957031 C 181.476562 122.238281 181.503906 122.523438 181.503906 122.8125 L 181.503906 130.761719 L 191.851562 130.761719 C 192.125 130.761719 192.398438 130.789062 192.671875 130.839844 C 192.941406 130.894531 193.203125 130.976562 193.457031 131.082031 C 193.714844 131.183594 193.957031 131.3125 194.183594 131.464844 C 194.414062 131.621094 194.625 131.796875 194.820312 131.992188 C 195.015625 132.1875 195.191406 132.398438 195.34375 132.628906 C 195.496094 132.859375 195.625 133.101562 195.730469 133.355469 C 195.835938 133.609375 195.917969 133.871094 195.96875 134.140625 C 196.023438 134.410156 196.050781 134.683594 196.050781 134.960938 C 196.050781 135.238281 196.023438 135.511719 195.96875 135.78125 C 195.917969 136.050781 195.835938 136.316406 195.730469 136.574219 C 195.625 136.824219 195.496094 137.066406 195.34375 137.296875 C 195.191406 137.523438 195.015625 137.738281 194.820312 137.933594 C 194.625 138.125 194.414062 138.300781 194.183594 138.457031 C 193.957031 138.609375 193.714844 138.738281 193.457031 138.847656 C 193.203125 138.949219 192.941406 139.027344 192.671875 139.082031 C 192.398438 139.132812 192.125 139.160156 191.851562 139.164062 L 181.507812 139.164062 L 181.507812 167.597656 C 181.507812 175.550781 185.074219 175.550781 186.785156 175.550781 C 189.445312 175.5 191.851562 174.683594 193.996094 173.113281 C 194.238281 172.96875 194.492188 172.847656 194.757812 172.75 C 195.019531 172.65625 195.292969 172.585938 195.570312 172.542969 C 195.847656 172.503906 196.128906 172.488281 196.410156 172.5 C 196.691406 172.511719 196.96875 172.554688 197.242188 172.621094 C 197.515625 172.6875 197.777344 172.78125 198.03125 172.898438 C 198.289062 173.019531 198.527344 173.160156 198.753906 173.328125 C 198.980469 173.492188 199.191406 173.679688 199.378906 173.886719 C 199.570312 174.09375 199.738281 174.320312 199.886719 174.558594 C 200.023438 174.804688 200.140625 175.0625 200.230469 175.332031 C 200.316406 175.601562 200.378906 175.878906 200.414062 176.160156 C 200.453125 176.441406 200.460938 176.71875 200.441406 177 C 200.421875 177.285156 200.375 177.5625 200.300781 177.835938 C 200.226562 178.109375 200.128906 178.375 200.003906 178.628906 C 199.878906 178.882812 199.730469 179.125 199.558594 179.347656 C 199.386719 179.574219 199.195312 179.777344 198.984375 179.96875 C 198.773438 180.152344 198.546875 180.320312 198.300781 180.460938 C 196.546875 181.710938 194.644531 182.675781 192.597656 183.351562 C 190.554688 184.027344 188.453125 184.386719 186.296875 184.425781 C 185.339844 184.476562 184.390625 184.414062 183.445312 184.238281 C 182.503906 184.070312 181.589844 183.792969 180.710938 183.410156 C 179.832031 183.027344 179.007812 182.550781 178.238281 181.980469 C 177.46875 181.40625 176.777344 180.753906 176.15625 180.019531 Z M 145.277344 180.019531 C 144.03125 178.285156 143.113281 176.394531 142.523438 174.347656 C 141.929688 172.292969 141.703125 170.203125 141.835938 168.074219 L 141.835938 122.8125 C 141.835938 122.523438 141.863281 122.238281 141.921875 121.953125 C 141.976562 121.671875 142.0625 121.398438 142.171875 121.132812 C 142.28125 120.863281 142.417969 120.613281 142.578125 120.375 C 142.738281 120.136719 142.917969 119.914062 143.125 119.707031 C 143.328125 119.503906 143.550781 119.320312 143.789062 119.164062 C 144.027344 119 144.28125 118.863281 144.546875 118.753906 C 144.816406 118.644531 145.089844 118.558594 145.371094 118.503906 C 145.65625 118.449219 145.941406 118.421875 146.230469 118.421875 C 146.515625 118.421875 146.804688 118.449219 147.085938 118.503906 C 147.367188 118.5625 147.644531 118.644531 147.910156 118.753906 C 148.175781 118.867188 148.429688 119.003906 148.667969 119.164062 C 148.910156 119.320312 149.132812 119.503906 149.335938 119.707031 C 149.539062 119.914062 149.722656 120.136719 149.882812 120.371094 C 150.042969 120.613281 150.175781 120.863281 150.285156 121.132812 C 150.398438 121.398438 150.480469 121.675781 150.535156 121.957031 C 150.59375 122.238281 150.621094 122.523438 150.621094 122.8125 L 150.621094 167.597656 C 150.621094 175.550781 154.179688 175.550781 155.898438 175.550781 C 158.558594 175.5 160.964844 174.683594 163.113281 173.113281 C 163.351562 172.964844 163.605469 172.84375 163.871094 172.746094 C 164.136719 172.652344 164.40625 172.585938 164.6875 172.542969 C 164.964844 172.5 165.246094 172.484375 165.527344 172.5 C 165.808594 172.511719 166.085938 172.554688 166.359375 172.621094 C 166.632812 172.6875 166.894531 172.78125 167.152344 172.898438 C 167.40625 173.015625 167.648438 173.160156 167.875 173.328125 C 168.101562 173.492188 168.308594 173.679688 168.5 173.886719 C 168.691406 174.09375 168.859375 174.316406 169.007812 174.558594 C 169.144531 174.808594 169.261719 175.066406 169.347656 175.332031 C 169.4375 175.597656 169.5 175.875 169.535156 176.15625 C 169.574219 176.4375 169.582031 176.71875 169.5625 177 C 169.542969 177.285156 169.496094 177.5625 169.421875 177.835938 C 169.347656 178.109375 169.25 178.375 169.125 178.628906 C 169 178.882812 168.851562 179.121094 168.679688 179.34375 C 168.507812 179.570312 168.316406 179.777344 168.105469 179.964844 C 167.894531 180.152344 167.667969 180.320312 167.421875 180.460938 C 165.667969 181.707031 163.765625 182.671875 161.71875 183.347656 C 159.671875 184.023438 157.574219 184.382812 155.417969 184.425781 C 154.460938 184.476562 153.511719 184.414062 152.566406 184.242188 C 151.625 184.070312 150.710938 183.796875 149.832031 183.414062 C 148.953125 183.03125 148.128906 182.554688 147.359375 181.980469 C 146.589844 181.410156 145.894531 180.753906 145.277344 180.019531 Z M 264.765625 127.863281 C 264.628906 127.738281 264.5625 127.582031 264.566406 127.390625 L 264.566406 121.644531 L 261.640625 127.597656 C 261.519531 127.835938 261.324219 127.945312 261.058594 127.929688 C 260.777344 127.929688 260.578125 127.804688 260.460938 127.546875 L 257.550781 121.726562 L 257.550781 127.390625 C 257.550781 127.574219 257.488281 127.730469 257.359375 127.859375 C 257.226562 127.984375 257.070312 128.046875 256.890625 128.046875 C 256.710938 128.046875 256.554688 127.984375 256.421875 127.859375 C 256.292969 127.730469 256.234375 127.574219 256.242188 127.390625 L 256.242188 119.066406 C 256.234375 118.882812 256.296875 118.726562 256.421875 118.59375 C 256.554688 118.472656 256.707031 118.414062 256.886719 118.414062 C 257.167969 118.398438 257.367188 118.519531 257.484375 118.777344 L 261.078125 125.886719 L 264.636719 118.769531 C 264.753906 118.566406 264.925781 118.453125 265.15625 118.429688 C 265.367188 118.398438 265.546875 118.457031 265.699219 118.609375 C 265.8125 118.742188 265.871094 118.898438 265.867188 119.074219 L 265.867188 127.402344 C 265.871094 127.578125 265.8125 127.730469 265.699219 127.859375 C 265.570312 127.996094 265.414062 128.0625 265.226562 128.058594 C 265.046875 128.054688 264.894531 127.992188 264.765625 127.863281 Z M 250.234375 127.863281 C 250.105469 127.734375 250.042969 127.578125 250.042969 127.390625 L 250.042969 119.65625 L 247.429688 119.65625 C 247.257812 119.65625 247.109375 119.597656 246.988281 119.476562 C 246.863281 119.351562 246.800781 119.207031 246.804688 119.035156 C 246.800781 118.859375 246.863281 118.714844 246.988281 118.589844 C 247.109375 118.46875 247.253906 118.410156 247.429688 118.410156 L 253.964844 118.410156 C 254.140625 118.40625 254.289062 118.464844 254.414062 118.589844 C 254.53125 118.714844 254.59375 118.863281 254.59375 119.035156 C 254.59375 119.203125 254.535156 119.351562 254.414062 119.476562 C 254.289062 119.597656 254.136719 119.660156 253.964844 119.65625 L 251.355469 119.65625 L 251.355469 127.390625 C 251.355469 127.574219 251.292969 127.730469 251.164062 127.859375 C 251.035156 127.988281 250.882812 128.050781 250.699219 128.046875 C 250.519531 128.050781 250.367188 127.988281 250.238281 127.863281 Z M 250.234375 127.863281 " fill-opacity="1" fill-rule="nonzero"/></g><g clip-path="url(#c3ac3f9c9e)"><path fill="#042698" d="M 98.941406 175.007812 C 96.121094 173.40625 93.949219 171.171875 92.425781 168.308594 C 90.753906 165.164062 89.949219 161.8125 90.015625 158.253906 C 89.957031 154.746094 90.757812 151.449219 92.417969 148.359375 C 93.953125 145.515625 96.125 143.296875 98.9375 141.699219 C 101.898438 140.054688 105.078125 139.257812 108.464844 139.3125 C 111.878906 139.261719 115.074219 140.058594 118.0625 141.707031 C 120.882812 143.28125 123.050781 145.492188 124.566406 148.34375 C 126.203125 151.445312 126.988281 154.75 126.929688 158.253906 C 126.992188 161.8125 126.203125 165.167969 124.5625 168.324219 C 123.058594 171.195312 120.890625 173.421875 118.0625 175.003906 C 115.074219 176.652344 111.878906 177.449219 108.464844 177.394531 C 105.078125 177.453125 101.902344 176.65625 98.9375 175.007812 M 94.457031 133.992188 C 92.386719 135.171875 90.511719 136.609375 88.835938 138.304688 C 87.160156 139.996094 85.742188 141.886719 84.585938 143.96875 C 83.410156 146.175781 82.523438 148.492188 81.917969 150.917969 C 81.3125 153.34375 81.007812 155.808594 81.007812 158.308594 C 81.007812 160.808594 81.3125 163.269531 81.917969 165.695312 C 82.523438 168.121094 83.410156 170.441406 84.585938 172.648438 C 85.742188 174.730469 87.160156 176.617188 88.835938 178.3125 C 90.515625 180.003906 92.386719 181.441406 94.457031 182.621094 C 95.53125 183.207031 96.636719 183.722656 97.777344 184.171875 C 98.914062 184.617188 100.078125 184.992188 101.265625 185.296875 C 102.449219 185.597656 103.648438 185.824219 104.863281 185.976562 C 106.078125 186.128906 107.296875 186.207031 108.519531 186.207031 C 109.742188 186.207031 110.960938 186.128906 112.175781 185.976562 C 113.390625 185.824219 114.589844 185.597656 115.777344 185.296875 C 116.960938 184.992188 118.125 184.617188 119.261719 184.171875 C 120.402344 183.722656 121.507812 183.207031 122.582031 182.621094 C 124.652344 181.441406 126.519531 180.003906 128.191406 178.308594 C 129.859375 176.613281 131.269531 174.71875 132.414062 172.632812 C 133.570312 170.421875 134.445312 168.105469 135.039062 165.683594 C 135.636719 163.261719 135.933594 160.800781 135.933594 158.308594 C 135.933594 155.8125 135.636719 153.355469 135.039062 150.933594 C 134.445312 148.507812 133.570312 146.191406 132.414062 143.980469 C 131.269531 141.894531 129.863281 140.003906 128.191406 138.304688 C 126.523438 136.609375 124.652344 135.171875 122.585938 133.992188 C 121.511719 133.410156 120.402344 132.890625 119.265625 132.445312 C 118.125 131.996094 116.964844 131.621094 115.777344 131.320312 C 114.59375 131.019531 113.390625 130.789062 112.179688 130.636719 C 110.964844 130.488281 109.746094 130.410156 108.523438 130.410156 C 107.296875 130.410156 106.078125 130.488281 104.867188 130.636719 C 103.652344 130.789062 102.453125 131.019531 101.265625 131.320312 C 100.078125 131.621094 98.917969 131.996094 97.777344 132.445312 C 96.640625 132.890625 95.535156 133.410156 94.460938 133.992188 " fill-opacity="1" fill-rule="nonzero"/></g></svg>