<svg xmlns="http://www.w3.org/2000/svg" xmlns:xlink="http://www.w3.org/1999/xlink" width="400" zoomAndPan="magnify" viewBox="0 0 300 299.999988" height="400" preserveAspectRatio="xMidYMid meet" version="1.0"><defs><clipPath id="e5cb59dd14"><path d="M 16.910156 57 L 281 57 L 281 244 L 16.910156 244 Z M 16.910156 57 " clip-rule="nonzero"/></clipPath></defs><rect x="-30" width="360" fill="#ffffff" y="-29.999999" height="359.999986" fill-opacity="1"/><rect x="-30" width="360" fill="#ffffff" y="-29.999999" height="359.999986" fill-opacity="1"/><path fill="#94cc00" d="M 192.105469 97.203125 C 184.039062 94.238281 175.746094 92.160156 167.230469 90.976562 L 148.828125 145.527344 L 130.453125 91.070312 C 121.710938 92.449219 113.148438 94.578125 104.773438 97.449219 L 69.929688 193.359375 L 93.554688 193.359375 L 116.621094 127.644531 L 133.515625 176.363281 L 164.117188 176.363281 L 181.011719 127.644531 L 204.085938 193.359375 L 227.105469 193.359375 Z M 192.105469 97.203125 " fill-opacity="1" fill-rule="nonzero"/><g clip-path="url(#e5cb59dd14)"><path fill="#000000" d="M 58.910156 193.359375 L 96.691406 89.589844 C 104.957031 86.398438 113.441406 83.957031 122.140625 82.257812 C 130.835938 80.558594 139.617188 79.628906 148.476562 79.472656 C 166.3125 79.246094 183.984375 82.730469 200.34375 89.691406 L 238.152344 193.359375 L 262.046875 193.359375 L 221.578125 82.179688 L 218.542969 73.808594 L 210.40625 69.839844 C 207.824219 68.535156 183.875 57.304688 148.503906 57.304688 C 138.125 57.484375 127.84375 58.578125 117.660156 60.589844 C 107.472656 62.597656 97.546875 65.496094 87.878906 69.273438 L 78.816406 73.042969 L 75.503906 82.15625 L 35.007812 193.359375 Z M 49.195312 242.148438 L 42.515625 242.148438 L 40.609375 227.589844 L 34.484375 242.148438 L 31.722656 242.148438 L 25.796875 227.589844 L 23.59375 242.148438 L 16.910156 242.148438 L 21.28125 216.851562 L 27.933594 216.851562 L 33.128906 230.351562 L 38.648438 216.851562 L 45.332031 216.851562 Z M 68.121094 242.148438 L 53.460938 242.148438 L 53.460938 216.851562 L 68.121094 216.851562 L 68.121094 222.320312 L 60.191406 222.320312 L 60.191406 226.65625 L 67.71875 226.65625 L 67.71875 232.171875 L 60.191406 232.171875 L 60.191406 236.707031 L 68.121094 236.707031 Z M 90.792969 222.320312 L 85.242188 222.320312 L 85.242188 242.023438 L 78.515625 242.023438 L 78.515625 222.320312 L 73.074219 222.320312 L 73.074219 216.851562 L 90.792969 216.851562 Z M 114.160156 229.710938 C 114.183594 228.855469 114.046875 228.023438 113.746094 227.214844 C 113.449219 226.410156 113.011719 225.691406 112.433594 225.054688 C 111.429688 223.910156 110.1875 223.148438 108.714844 222.773438 C 107.230469 222.390625 105.769531 222.460938 104.328125 222.980469 C 102.921875 223.484375 101.707031 224.402344 100.847656 225.601562 C 99.972656 226.832031 99.53125 228.199219 99.527344 229.710938 C 99.527344 231.390625 100.152344 233.007812 101.28125 234.269531 C 101.96875 235.085938 102.796875 235.710938 103.769531 236.144531 C 104.746094 236.578125 105.765625 236.773438 106.832031 236.730469 C 107.789062 236.742188 108.710938 236.574219 109.601562 236.222656 C 110.492188 235.871094 111.28125 235.367188 111.976562 234.707031 C 113.347656 233.390625 114.136719 231.59375 114.160156 229.710938 Z M 121.089844 229.710938 C 121.089844 233.421875 119.585938 236.980469 116.914062 239.601562 C 115.566406 240.917969 114.019531 241.933594 112.273438 242.640625 C 110.53125 243.351562 108.714844 243.703125 106.832031 243.703125 C 104.949219 243.703125 103.132812 243.351562 101.386719 242.640625 C 99.644531 241.933594 98.097656 240.917969 96.75 239.601562 C 95.417969 238.300781 94.390625 236.792969 93.664062 235.078125 C 92.941406 233.363281 92.574219 231.574219 92.570312 229.710938 C 92.5625 228.011719 92.875 226.367188 93.503906 224.785156 C 94.296875 223.03125 95.398438 221.492188 96.800781 220.171875 C 98.207031 218.851562 99.808594 217.851562 101.609375 217.167969 C 103.425781 216.476562 105.300781 216.148438 107.242188 216.1875 C 109.183594 216.230469 111.046875 216.632812 112.832031 217.398438 C 114.625 218.167969 116.207031 219.253906 117.578125 220.648438 C 118.71875 221.878906 119.597656 223.277344 120.207031 224.84375 C 120.820312 226.410156 121.121094 228.03125 121.117188 229.710938 Z M 154.976562 242.148438 L 148.226562 242.148438 L 146.34375 227.589844 L 140.09375 242.148438 L 137.40625 242.148438 L 131.457031 227.589844 L 129.25 242.148438 L 122.617188 242.148438 L 127.011719 216.851562 L 133.644531 216.851562 L 138.84375 230.351562 L 144.363281 216.851562 L 151.042969 216.851562 L 154.984375 242.148438 Z M 179.609375 229.710938 C 179.625 228.855469 179.484375 228.023438 179.1875 227.21875 C 178.886719 226.414062 178.453125 225.695312 177.878906 225.054688 C 176.871094 223.925781 175.636719 223.179688 174.167969 222.816406 C 172.691406 222.445312 171.242188 222.523438 169.8125 223.039062 C 168.394531 223.550781 167.242188 224.421875 166.359375 225.644531 C 165.484375 226.859375 165.039062 228.214844 165.023438 229.710938 C 165.015625 231.386719 165.632812 233.003906 166.757812 234.269531 C 167.449219 235.082031 168.285156 235.703125 169.261719 236.136719 C 170.238281 236.570312 171.261719 236.765625 172.332031 236.730469 C 174.238281 236.734375 176.078125 236.003906 177.441406 234.691406 C 178.800781 233.375 179.582031 231.585938 179.609375 229.710938 Z M 186.535156 229.710938 C 186.535156 233.421875 185.035156 236.980469 182.363281 239.601562 C 181.015625 240.917969 179.46875 241.933594 177.722656 242.640625 C 175.976562 243.351562 174.160156 243.703125 172.277344 243.703125 C 170.394531 243.703125 168.582031 243.351562 166.835938 242.640625 C 165.089844 241.933594 163.542969 240.917969 162.199219 239.601562 C 160.863281 238.300781 159.835938 236.792969 159.113281 235.078125 C 158.386719 233.363281 158.023438 231.574219 158.019531 229.710938 C 158.011719 228.011719 158.320312 226.367188 158.949219 224.785156 C 159.746094 223.03125 160.84375 221.492188 162.246094 220.171875 C 163.652344 218.851562 165.253906 217.851562 167.058594 217.167969 C 168.871094 216.476562 170.75 216.148438 172.691406 216.1875 C 174.628906 216.230469 176.492188 216.632812 178.277344 217.398438 C 180.058594 218.15625 181.660156 219.265625 182.996094 220.648438 C 185.3125 223.121094 186.574219 226.359375 186.535156 229.710938 Z M 206.09375 222.320312 L 200.519531 222.320312 L 200.519531 242.023438 L 193.839844 242.023438 L 193.839844 222.320312 L 188.398438 222.320312 L 188.398438 216.851562 L 205.972656 216.851562 L 206.097656 222.320312 Z M 217.3125 216.851562 L 210.582031 216.851562 L 210.582031 242.148438 L 217.3125 242.148438 Z M 243.191406 229.710938 C 243.242188 228 242.621094 226.332031 241.460938 225.054688 C 241.144531 224.695312 240.796875 224.371094 240.414062 224.082031 C 240.035156 223.789062 239.632812 223.539062 239.203125 223.328125 C 238.773438 223.113281 238.328125 222.945312 237.867188 222.820312 C 237.402344 222.691406 236.933594 222.613281 236.457031 222.578125 C 235.980469 222.542969 235.503906 222.550781 235.027344 222.609375 C 234.554688 222.667969 234.085938 222.769531 233.632812 222.917969 C 233.175781 223.0625 232.738281 223.253906 232.320312 223.484375 C 231.902344 223.714844 231.507812 223.988281 231.144531 224.292969 C 230.339844 224.96875 229.71875 225.777344 229.28125 226.726562 C 228.839844 227.675781 228.625 228.667969 228.632812 229.710938 C 228.652344 231.589844 229.429688 233.390625 230.792969 234.714844 C 232.152344 236.035156 234 236.777344 235.914062 236.777344 C 236.871094 236.78125 237.792969 236.609375 238.679688 236.253906 C 239.570312 235.898438 240.359375 235.390625 241.046875 234.726562 C 241.726562 234.070312 242.25 233.304688 242.621094 232.433594 C 242.996094 231.5625 243.183594 230.65625 243.191406 229.710938 Z M 250.152344 229.710938 C 250.164062 231.800781 249.726562 233.792969 248.835938 235.683594 C 247.960938 237.558594 246.667969 239.21875 245.058594 240.546875 C 243.425781 241.890625 241.582031 242.828125 239.535156 243.363281 C 238.519531 243.628906 237.488281 243.777344 236.441406 243.820312 C 235.390625 243.859375 234.351562 243.789062 233.320312 243.605469 C 232.289062 243.421875 231.285156 243.128906 230.316406 242.726562 C 229.347656 242.328125 228.433594 241.828125 227.570312 241.230469 C 225.84375 240.023438 224.457031 238.507812 223.410156 236.683594 C 222.894531 235.789062 222.488281 234.847656 222.183594 233.859375 C 221.882812 232.871094 221.691406 231.863281 221.617188 230.832031 C 221.542969 229.804688 221.582031 228.777344 221.734375 227.757812 C 221.890625 226.738281 222.15625 225.746094 222.535156 224.785156 C 223.304688 223.054688 224.421875 221.488281 225.8125 220.183594 C 227.222656 218.859375 228.832031 217.851562 230.640625 217.160156 C 232.453125 216.46875 234.332031 216.140625 236.273438 216.183594 C 238.214844 216.222656 240.078125 216.628906 241.863281 217.398438 C 243.648438 218.144531 245.265625 219.246094 246.605469 220.621094 C 248.921875 223.101562 250.195312 226.347656 250.171875 229.710938 L 250.148438 229.710938 Z M 280.148438 242.148438 L 273.417969 242.148438 L 261.117188 226.683594 L 261.117188 242.148438 L 254.390625 242.148438 L 254.390625 216.851562 L 261.121094 216.851562 L 273.445312 232.347656 L 273.445312 216.851562 L 280.148438 216.851562 Z M 280.148438 242.148438 " fill-opacity="1" fill-rule="nonzero"/></g></svg>